<?xml version="1.0" encoding="utf-8"?>
<!-- Generator: Adobe Illustrator 26.4.1, SVG Export Plug-In . SVG Version: 6.00 Build 0)  -->
<svg version="1.1" id="图层_1" xmlns="http://www.w3.org/2000/svg" xmlns:xlink="http://www.w3.org/1999/xlink" x="0px" y="0px"
	 viewBox="0 0 1080 1016.1" style="enable-background:new 0 0 1080 1016.1;" xml:space="preserve">
<style type="text/css">
	.st0{clip-path:url(#SVGID_00000029737389749129781900000006781602033506828477_);}
	.st1{clip-path:url(#SVGID_00000029737389749129781900000006781602033506828477_);fill:#FFFFFF;}
	.st2{fill:#FFFFFF;}
	.st3{fill:url(#SVGID_00000009580368637817026530000013548385901879074951_);}
</style>
<g>
	<defs>
		<path id="SVGID_1_" d="M1064,883.2c-41.2-71.9-76.9-132.9-105.7-181.5c27.1-61.6,42.2-129.8,42.2-201.5
			C1000.5,224,776.6,0,500.3,0C224,0,0,224,0,500.3c0,268.9,212.1,488.2,478.1,499.8c7.3,0.3,14.7,0.5,22.1,0.5
			c86.3,0,167.5-21.8,238.3-60.3l52.9,38.7c33.3,24.3,72.6,37.2,113.7,37.2c61.4,0,119.6-29.6,155.8-79.1l19-26L1064,883.2z"/>
	</defs>
	<clipPath id="SVGID_00000088101441868771637610000002967372730014785929_">
		<use xlink:href="#SVGID_1_"  style="overflow:visible;"/>
	</clipPath>
	<path style="clip-path:url(#SVGID_00000088101441868771637610000002967372730014785929_);" d="M1000.5,500.3
		c0,130.9-50.3,250.1-132.6,339.3c-91.4,99-222.3,161-367.6,161c-7.4,0-14.8-0.2-22.1-0.5C212.1,988.5,0,769.2,0,500.3
		C0,224,224,0,500.3,0C776.6,0,1000.5,224,1000.5,500.3z"/>
	<path style="clip-path:url(#SVGID_00000088101441868771637610000002967372730014785929_);fill:#FFFFFF;" d="M865.3,504.9V842
		c-90,97.6-219,158.7-362.3,158.7c-7.3,0-15-0.2-22.2-0.5l0.4-819.3h60.1C720.3,180.9,865.3,326,865.3,504.9z"/>
	<g style="clip-path:url(#SVGID_00000088101441868771637610000002967372730014785929_);">
		<circle cx="652.8" cy="364.6" r="84.9"/>
	</g>
	<g style="clip-path:url(#SVGID_00000088101441868771637610000002967372730014785929_);">
		<path d="M755.9,581.1c27.3,0,54.9,8.4,78.7,25.7c0,0,65.8,105.5,172.2,291.3h0c-26.1,35.8-66.7,54.7-107.8,54.7
			c-27.3,0-54.9-8.4-78.7-25.7L677,822.3c-59.5-43.5-72.5-127-29-186.5l0,0C674.2,600.1,714.7,581.1,755.9,581.1 M751.5,517.8
			c-61.4,0-119.6,29.6-155.8,79.1c-30.4,41.6-42.8,92.5-34.9,143.5c7.9,50.9,35.2,95.7,76.8,126.1l153.9,112.5
			c33.3,24.3,72.6,37.2,113.7,37.2c61.4,0,119.6-29.6,155.8-79.1l19-26l-16-27.9C950.5,685.1,878.8,569.9,878,568.7l-5.1-8.1
			l-7.7-5.6C832,530.6,792.6,517.8,751.5,517.8L751.5,517.8z"/>
	</g>
	<path style="clip-path:url(#SVGID_00000088101441868771637610000002967372730014785929_);fill:#FFFFFF;" d="M755.9,581.1
		c27.3,0,54.9,8.4,78.7,25.7c0,0,65.8,105.5,172.2,291.3h0c-26.1,35.8-66.7,54.7-107.8,54.7c-27.3,0-54.9-8.4-78.7-25.7L677,822.3
		c-59.5-43.5-72.5-127-29-186.5l0,0C674.2,600.1,714.7,581.1,755.9,581.1"/>
	<g style="clip-path:url(#SVGID_00000088101441868771637610000002967372730014785929_);">
		<path class="st2" d="M218.9,535.7c0,109.2,88.6,197.8,197.8,197.8V535.7H218.9z"/>
	</g>
	<g style="clip-path:url(#SVGID_00000088101441868771637610000002967372730014785929_);">
		
			<linearGradient id="SVGID_00000148654674704335711590000004535893886210217658_" gradientUnits="userSpaceOnUse" x1="150.6125" y1="270.1811" x2="415.2581" y2="397.9432">
			<stop  offset="0" style="stop-color:#B8F6FF"/>
			<stop  offset="0.15" style="stop-color:#AAF0FA"/>
			<stop  offset="0.4331" style="stop-color:#85DFED"/>
			<stop  offset="0.6323" style="stop-color:#67D2E3"/>
			<stop  offset="1" style="stop-color:#67D2E3"/>
		</linearGradient>
		<path style="fill:url(#SVGID_00000148654674704335711590000004535893886210217658_);" d="M416.7,180.8
			c-162.3,0-293.8,131.5-293.8,293.8h293.8V180.8z"/>
	</g>
</g>
</svg>
